<svg id="圖層_1" data-name="圖層 1" xmlns="http://www.w3.org/2000/svg" viewBox="0 0 346.51 222.73"><defs>
<style>.cls-1{fill:#1a1a1a;}</style>
</defs>
<title>淇豪LOGO</title>
<path class="cls-2" d="M51.26,72.36c12.67,0,23-9.89,23-22s-10.3-22-23-22-23,9.89-23,22S38.58,72.36,51.26,72.36Zm0-33.9A12.14,12.14,0,0,1,63.63,50.32a12.39,12.39,0,0,1-24.75,0A12.14,12.14,0,0,1,51.26,38.46Z"/>
<path class="cls-1" d="M307.59,28.28V132.59H267V28.28H256.36V132.59H28.28v61.86H318.19V28.28ZM38.88,183.85V143.19H256.36v40.66Zm268.71,0H267V143.19h40.62Z"/>
<path class="cls-3" d="M346.47,10.61V0H0V222.73H346.51v-10.6h0ZM10.6,212.13V10.61H335.87V212.13Z"/>
</svg>